<svg width="48" height="48" viewBox="0 0 30 45" fill="none" xmlns="http://www.w3.org/2000/svg">
<rect width="30" height="45" rx="6" fill="#5B4DFF"/>
<path fill-rule="evenodd" clip-rule="evenodd" d="M14.7916 37.4624C8.50107 37.4624 3.93384 33.822 3.93384 29.2657C3.93384 24.7095 7.23375 21.0159 14.7916 20.9627C22.3495 20.9095 25.756 24.7095 25.756 29.2657C25.756 33.822 20.7097 37.4624 14.7916 37.4624ZM20.5991 24.5988H9.17055C7.15614 24.5988 5.5232 26.2317 5.5232 28.2461C5.5232 30.2605 7.15614 31.8936 9.17055 31.8936C9.17055 31.8936 11.9536 30.6778 14.7633 30.6778C17.6663 30.6778 20.5991 31.8936 20.5991 31.8936C22.6135 31.8936 24.2465 30.2605 24.2465 28.2461C24.2465 26.2317 22.6135 24.5988 20.5991 24.5988Z" fill="white"/>
<path fill-rule="evenodd" clip-rule="evenodd" d="M15.1897 21.1755L17.5316 5.31461C17.5316 5.31461 18.4364 0.790498 22.3218 0.843728C26.2072 0.896957 29.0281 6.80488 29.1346 11.5951C29.0584 17.7478 25.675 15.6796 23.8121 12.6596C23.8121 12.2871 19.2347 21.6013 19.2347 21.6013L15.1897 21.1755Z" fill="white"/>
<path fill-rule="evenodd" clip-rule="evenodd" d="M14.5505 21.1755L12.2086 5.31461C12.2086 5.31461 11.3038 0.790498 7.41846 0.843728C3.53302 0.896957 0.712093 6.80488 0.605713 11.5951C0.681833 17.7478 4.06532 15.6796 5.92811 12.6596C5.92811 12.2871 10.5055 21.6013 10.5055 21.6013L14.5505 21.1755Z" fill="white"/>
<path d="M19.3429 29.5609L21.2244 28.195V27.4775L19.3429 26.1116V26.9463L20.1131 27.443L20.6742 27.8155V27.85L20.1131 28.2226L19.3429 28.7193V29.5609Z" fill="white"/>
<path d="M18.8732 26.1115L16.9917 27.4774V28.1949L18.8732 29.5608V28.7261L18.103 28.2293L17.5418 27.8568V27.8223L18.103 27.4498L18.8732 26.9531V26.1115Z" fill="white"/>
<path d="M11.5022 29.2648V28.8848H12.1462V26.8368H11.6182V26.5448C11.8942 26.4928 12.0902 26.4248 12.2582 26.3208H12.6062V28.8848H13.1822V29.2648H11.5022Z" fill="white"/>
<path d="M10.0169 29.3169C9.43694 29.3169 9.06494 28.8049 9.06494 27.7809C9.06494 26.7609 9.43694 26.2649 10.0169 26.2649C10.5929 26.2649 10.9689 26.7649 10.9689 27.7809C10.9689 28.8049 10.5929 29.3169 10.0169 29.3169ZM10.0169 28.9529C10.3169 28.9529 10.5289 28.6329 10.5289 27.7809C10.5289 26.9369 10.3169 26.6289 10.0169 26.6289C9.71694 26.6289 9.50494 26.9369 9.50494 27.7809C9.50494 28.6329 9.71694 28.9529 10.0169 28.9529Z" fill="white"/>
<path fill-rule="evenodd" clip-rule="evenodd" d="M14.9747 42.5688C14.6785 42.5831 14.4131 42.5921 14.2335 42.5903C14.0624 42.5887 13.8097 42.5628 13.526 42.5157C13.5398 42.6016 13.5489 42.6891 13.5489 42.7789C13.5489 43.6901 12.8097 44.4288 11.8977 44.4288C10.9858 44.4288 10.2466 43.6901 10.2466 42.7789C10.2466 42.6715 10.2576 42.5667 10.2772 42.465C10.143 42.5559 10.0034 42.6026 9.85814 42.5903C8.55908 42.4812 8.98225 40.5758 10.0116 38.8291C11.041 37.0823 12.7751 36.2959 12.7751 36.2959L14.9747 36.0959V42.5688ZM11.0977 41.336C11.2355 41.2595 11.3853 41.2025 11.5437 41.168C11.7331 40.5381 12.2255 39.6931 12.468 38.7522C12.1781 38.3564 11.7249 40.0702 11.0977 41.336Z" fill="white"/>
<path fill-rule="evenodd" clip-rule="evenodd" d="M19.9419 42.5903C19.7967 42.6026 19.6571 42.556 19.5229 42.4651C19.5425 42.5668 19.5535 42.6715 19.5535 42.7789C19.5535 43.6901 18.8143 44.4288 17.9024 44.4288C16.9904 44.4288 16.2512 43.6901 16.2512 42.7789C16.2512 42.6891 16.2604 42.6016 16.2742 42.5156C15.9904 42.5628 15.7376 42.5887 15.5664 42.5903C15.3869 42.5921 15.1215 42.5831 14.8254 42.5688V36.0959L17.0249 36.2959C17.0249 36.2959 18.7589 37.0823 19.7883 38.8291C20.8177 40.5758 21.2409 42.4812 19.9419 42.5903ZM17.3319 38.7522C17.5746 39.6931 18.0669 40.5381 18.2564 41.1679C18.4146 41.2025 18.5644 41.2594 18.7022 41.3359C18.0751 40.0701 17.6218 38.3564 17.3319 38.7522Z" fill="white"/>
</svg>
